<svg id="Capa_1" enable-background="new 0 0 512 512" height="512" viewBox="0 0 512 512" width="512" xmlns="http://www.w3.org/2000/svg"><g><path d="m256 50.008c8.986 0 17.814.686 26.437 2.007v-25.578c-.001-14.578-11.86-26.437-26.437-26.437s-26.437 11.859-26.437 26.437v25.578c8.622-1.322 17.451-2.007 26.437-2.007z"/><path d="m450.052 425.106v-8.953c0-6.388-3.985-12.182-10.154-14.761-24.351-10.183-40.085-33.816-40.085-60.209v-117.362c0-79.299-64.515-143.813-143.813-143.813-79.299 0-143.814 64.515-143.814 143.813v117.362c0 26.393-15.734 50.026-40.085 60.209-6.168 2.579-10.153 8.373-10.153 14.761v8.953c0 9.098 7.401 16.499 16.499 16.499h130.38 94.348 130.38c9.096 0 16.497-7.401 16.497-16.499z"/><path d="m223.826 479.826c0 17.74 14.433 32.174 32.174 32.174 17.74 0 32.174-14.434 32.174-32.174v-8.221h-64.348z"/></g></svg>